<svg width="310" height="49" viewBox="0 0 310 49" fill="none" xmlns="http://www.w3.org/2000/svg">
<path d="M64.792 3.072L53.08 48H39.832L32.664 18.432L25.24 48H11.992L0.6 3.072H12.312L18.776 35.776L26.776 3.072H38.808L46.488 35.776L53.016 3.072H64.792ZM103.944 29.568C103.944 30.592 103.881 31.6587 103.753 32.768H78.9845C79.1552 34.9867 79.8592 36.6933 81.0965 37.888C82.3765 39.04 83.9338 39.616 85.7685 39.616C88.4992 39.616 90.3978 38.464 91.4645 36.16H103.113C102.515 38.5067 101.427 40.6187 99.8485 42.496C98.3125 44.3733 96.3712 45.8453 94.0245 46.912C91.6778 47.9787 89.0538 48.512 86.1525 48.512C82.6538 48.512 79.5392 47.7653 76.8085 46.272C74.0778 44.7787 71.9445 42.6453 70.4085 39.872C68.8725 37.0987 68.1045 33.856 68.1045 30.144C68.1045 26.432 68.8512 23.1893 70.3445 20.416C71.8805 17.6427 74.0138 15.5093 76.7445 14.016C79.4752 12.5227 82.6112 11.776 86.1525 11.776C89.6085 11.776 92.6805 12.5013 95.3685 13.952C98.0565 15.4027 100.147 17.472 101.641 20.16C103.177 22.848 103.944 25.984 103.944 29.568ZM92.7445 26.688C92.7445 24.8107 92.1045 23.3173 90.8245 22.208C89.5445 21.0987 87.9445 20.544 86.0245 20.544C84.1898 20.544 82.6325 21.0773 81.3525 22.144C80.1152 23.2107 79.3472 24.7253 79.0485 26.688H92.7445ZM120.662 0.639999V48H109.718V0.639999H120.662ZM126.417 30.144C126.417 26.432 127.164 23.1893 128.657 20.416C130.193 17.6427 132.305 15.5093 134.993 14.016C137.724 12.5227 140.838 11.776 144.337 11.776C148.817 11.776 152.55 12.9493 155.537 15.296C158.566 17.6427 160.55 20.9493 161.489 25.216H149.841C148.86 22.4853 146.961 21.12 144.145 21.12C142.14 21.12 140.54 21.9093 139.345 23.488C138.15 25.024 137.553 27.2427 137.553 30.144C137.553 33.0453 138.15 35.2853 139.345 36.864C140.54 38.4 142.14 39.168 144.145 39.168C146.961 39.168 148.86 37.8027 149.841 35.072H161.489C160.55 39.2533 158.566 42.5387 155.537 44.928C152.508 47.3173 148.774 48.512 144.337 48.512C140.838 48.512 137.724 47.7653 134.993 46.272C132.305 44.7787 130.193 42.6453 128.657 39.872C127.164 37.0987 126.417 33.856 126.417 30.144ZM183.599 48.512C180.1 48.512 176.943 47.7653 174.127 46.272C171.354 44.7787 169.156 42.6453 167.535 39.872C165.956 37.0987 165.167 33.856 165.167 30.144C165.167 26.4747 165.978 23.2533 167.599 20.48C169.22 17.664 171.439 15.5093 174.255 14.016C177.071 12.5227 180.228 11.776 183.727 11.776C187.226 11.776 190.383 12.5227 193.199 14.016C196.015 15.5093 198.234 17.664 199.855 20.48C201.476 23.2533 202.287 26.4747 202.287 30.144C202.287 33.8133 201.455 37.056 199.791 39.872C198.17 42.6453 195.93 44.7787 193.071 46.272C190.255 47.7653 187.098 48.512 183.599 48.512ZM183.599 39.04C185.69 39.04 187.46 38.272 188.911 36.736C190.404 35.2 191.151 33.0027 191.151 30.144C191.151 27.2853 190.426 25.088 188.975 23.552C187.567 22.016 185.818 21.248 183.727 21.248C181.594 21.248 179.823 22.016 178.415 23.552C177.007 25.0453 176.303 27.2427 176.303 30.144C176.303 33.0027 176.986 35.2 178.351 36.736C179.759 38.272 181.508 39.04 183.599 39.04ZM253.661 11.904C258.098 11.904 261.618 13.248 264.221 15.936C266.866 18.624 268.189 22.3573 268.189 27.136V48H257.309V28.608C257.309 26.304 256.69 24.5333 255.453 23.296C254.258 22.016 252.594 21.376 250.461 21.376C248.328 21.376 246.642 22.016 245.405 23.296C244.21 24.5333 243.613 26.304 243.613 28.608V48H232.733V28.608C232.733 26.304 232.114 24.5333 230.877 23.296C229.682 22.016 228.018 21.376 225.885 21.376C223.752 21.376 222.066 22.016 220.829 23.296C219.634 24.5333 219.037 26.304 219.037 28.608V48H208.093V12.288H219.037V16.768C220.146 15.2747 221.597 14.1013 223.389 13.248C225.181 12.352 227.208 11.904 229.469 11.904C232.157 11.904 234.546 12.48 236.637 13.632C238.77 14.784 240.434 16.4267 241.629 18.56C242.866 16.5973 244.552 14.9973 246.685 13.76C248.818 12.5227 251.144 11.904 253.661 11.904ZM309.507 29.568C309.507 30.592 309.443 31.6587 309.315 32.768H284.547C284.718 34.9867 285.422 36.6933 286.659 37.888C287.939 39.04 289.496 39.616 291.331 39.616C294.062 39.616 295.96 38.464 297.027 36.16H308.675C308.078 38.5067 306.99 40.6187 305.411 42.496C303.875 44.3733 301.934 45.8453 299.587 46.912C297.24 47.9787 294.616 48.512 291.715 48.512C288.216 48.512 285.102 47.7653 282.371 46.272C279.64 44.7787 277.507 42.6453 275.971 39.872C274.435 37.0987 273.667 33.856 273.667 30.144C273.667 26.432 274.414 23.1893 275.907 20.416C277.443 17.6427 279.576 15.5093 282.307 14.016C285.038 12.5227 288.174 11.776 291.715 11.776C295.171 11.776 298.243 12.5013 300.931 13.952C303.619 15.4027 305.71 17.472 307.203 20.16C308.739 22.848 309.507 25.984 309.507 29.568ZM298.307 26.688C298.307 24.8107 297.667 23.3173 296.387 22.208C295.107 21.0987 293.507 20.544 291.587 20.544C289.752 20.544 288.195 21.0773 286.915 22.144C285.678 23.2107 284.91 24.7253 284.611 26.688H298.307Z" fill="#923CFF"/>
</svg>
